<?xml version="1.0" encoding="UTF-8"?>
<svg width="895px" height="259px" viewBox="0 0 895 259" version="1.1" xmlns="http://www.w3.org/2000/svg" xmlns:xlink="http://www.w3.org/1999/xlink">
    <title>Group 2</title>
    <defs>
        <rect id="path-1" x="0" y="0" width="895" height="259" rx="16"></rect>
    </defs>
    <g id="Page-1" stroke="none" stroke-width="1" fill="none" fill-rule="evenodd">
        <g id="variations" transform="translate(-272.000000, -1397.000000)">
            <g id="Group-2" transform="translate(272.000000, 1397.000000)">
                <mask id="mask-2" fill="white">
                    <use xlink:href="#path-1"></use>
                </mask>
                <g id="Mask"></g>
                <g mask="url(#mask-2)">
                    <polygon id="K" fill="#B48DFF" fill-rule="nonzero" points="84.0391608 259 84.0391608 155.838983 84.7636364 155.838983 153.226573 259 259 259 157.935664 118.525424 254.290909 0 152.864336 0 84.4013986 95.4788136 83.6769231 95.4788136 83.6769231 0 0 0 0 259"></polygon>
                    <path d="M342.8949,259 L342.8949,166.44774 L345.448223,166.44774 L395.055641,259 L495,259 L429.343122,154.009887 C443.933539,147.425141 455.119526,138.096751 462.901082,126.024718 C470.682638,113.952684 474.573416,99.9905838 474.573416,84.1384181 C474.573416,67.7984934 471.533745,54.2022128 465.454405,43.3495763 C459.375064,32.4969397 451.411128,23.8392185 441.562597,17.3764124 C431.714065,10.9136064 420.528078,6.40183616 408.004637,3.84110169 C395.481195,1.28036723 382.89696,0 370.251932,0 L259,0 L259,259 L342.8949,259 Z M359.309119,109.379944 L342.165379,109.379944 L342.165379,67.6765537 L362.956723,67.6765537 C365.631633,67.6765537 368.549717,67.8594633 371.710974,68.2252825 C374.872231,68.5911017 377.790314,69.4446798 380.465224,70.7860169 C383.140134,72.127354 385.328697,74.1393597 387.030912,76.8220339 C388.733127,79.5047081 389.584235,83.1629002 389.584235,87.7966102 C389.584235,92.4303202 388.550747,96.1494821 386.483771,98.954096 C384.416795,101.75871 381.863472,103.953625 378.823802,105.538842 C375.784132,107.124058 372.501288,108.160546 368.97527,108.648305 C365.449253,109.136064 362.227202,109.379944 359.309119,109.379944 L359.309119,109.379944 Z" id="R" fill="#B48DFF" fill-rule="nonzero"></path>
                    <polygon id="I" fill="#B48DFF" fill-rule="nonzero" points="568 259 568 0 479 0 479 259"></polygon>
                    <polygon id="M" fill="#B48DFF" fill-rule="nonzero" points="656.842466 259 652.836758 112.672316 654.657534 112.672316 701.997717 259 763.175799 259 811.244292 113.038136 813.429224 113.403955 810.880137 259 895 259 895 0 778.106164 0 737.684932 139.377119 735.864155 139.377119 689.252283 0 576 0 576 259"></polygon>
                    <g id="Group-6" transform="translate(349.555805, 164.543570) rotate(-13.000000) translate(-349.555805, -164.543570) translate(239.055805, 45.043570)">
                        <path d="M0.0346863954,195.420025 C3.3232078,190.968526 7.32717952,186.533444 12.0466016,182.114779 C18.4838303,176.087779 28.663333,162.020877 36.2077424,149.312769 C38.9666361,144.665577 42.7311866,138.13542 46.698756,129.262588 C48.3509239,125.56778 50.9311907,119.124613 54.4395565,109.933087 C51.071839,112.392889 48.4915721,114.006169 46.698756,114.772927 C44.9059398,115.539684 42.3736846,116.112945 39.1019902,116.49271 C44.9196497,98.943301 50.3248185,86.325914 55.3174965,78.6405486 C60.3101745,70.9551833 69.2544186,61.4841282 82.1502286,50.2273833 L70.6822485,50.2273833 C79.7277005,40.6800163 86.7134267,34.226062 91.6394273,30.8655204 C95.8857825,27.9686362 105.660575,25.7634553 109.57618,17.7986408 C112.944046,10.9479927 97.696827,1.74243035 101.05933,0.505808203 C104.480218,-0.752286466 121.981797,16.8263134 124.58357,15.9423706 C137.889763,11.4216408 155.746035,10.6791178 178.152387,13.7148014 C176.39566,16.390133 174.795174,18.2963346 173.350927,19.4334064 C171.906681,20.5704782 169.232503,22.0297695 165.328392,23.8112804 C172.060183,29.1325378 176.815936,33.2392258 179.595652,36.1313444 C182.375368,39.023463 185.116362,42.7166662 187.818634,47.210954 L190.143332,53.6292522 L218.83997,70.8811556 L219.420492,71.4110884 C219.977382,72.0903232 220.29136,72.5597829 220.362425,72.8194675 C220.771532,74.3144152 220.935006,75.432347 220.852845,76.1732628 C220.749276,77.1072332 220.163128,78.2741363 219.094401,79.6739722 C213.80091,87.3921196 209.842785,92.6096901 207.220026,95.3266837 C204.597267,98.0436774 201.597557,100.033933 198.220896,101.297452 C194.933087,101.970121 190.971847,102.41344 186.337176,102.627407 C182.78971,102.791182 178.457485,102.857373 171.01105,103.946279 C170.127837,104.075433 168.549744,103.587019 166.768721,103.946279 C165.910739,104.119347 164.471361,104.683231 162.450586,105.637932 C153.367122,111.896264 146.719384,117.949906 142.507373,123.798856 C138.295361,129.647807 136.057444,138.152444 135.793621,149.312769 C136.814873,162.357744 139.05279,171.465462 142.507373,176.635922 C143.354151,177.903292 147.030392,185.936887 156.56054,196.210637 C159.774641,199.675522 172.986388,213.938544 196.195784,238.999704 L0.0346863954,195.420025 Z" id="Path-4" fill="#FFFFFF"></path>
                        <path d="M159.463061,42.3909304 C166.043431,42.0517936 170.325424,42.5078739 172.309039,43.7591714 C174.292654,45.0104689 176.343994,48.5182306 178.463061,54.2824565 C172.887582,54.070688 169.167307,53.3765442 167.302234,52.200025 C165.437161,51.0235059 162.824103,47.7538077 159.463061,42.3909304 Z" id="Path-5" fill="#FFBC77"></path>
                        <path d="M211.261028,90.9213474 C204.901709,90.8229984 200.039458,90.7738238 196.674277,90.7738238 C193.309095,90.7738238 188.427035,89.6718933 182.028097,87.4680322 C170.032347,82.1373354 160.968311,78.9461915 154.835988,77.8946004 C148.703665,76.8430094 140.106691,77.0055847 129.045066,78.3823263 C125.527001,79.1894904 122.853968,79.9989734 121.025967,80.8107753 C119.197966,81.6225772 116.695994,83.1112764 113.520049,85.276873 L121.800668,86.7967708 C109.134763,97.0413477 101.204825,105.199992 98.0108531,111.272703 C94.8168816,117.345414 93.167765,127.399466 93.0635033,141.434859 C94.9488598,153.155648 96.5979764,160.992849 98.0108531,164.946461 C101.229359,173.952712 105.993707,179.745323 108.688872,182.4449 C111.480784,185.241382 119.257951,194.136063 130.55427,201.390493 C139.68571,207.25465 160.291222,218.390862 192.370809,234.799128 C181.510473,223.296987 172.617992,213.648688 165.693365,205.85423 C154.238934,192.96096 139.051084,171.042683 135.94104,154.210097 C135.292473,150.699845 135.400695,146.231525 136.265703,140.805138 C138.584302,130.903622 141.949223,123.77041 146.360467,119.405504 C149.887429,115.915591 155.64292,110.497156 161.930031,106.778269 C162.980902,106.156668 165.629174,105.21622 169.874845,103.956926 L189.567941,102.442079 L199.584941,100.819266 C203.336647,99.1912704 205.839969,97.7186991 207.094906,96.4015518 C208.349844,95.0844046 209.738551,93.2576698 211.261028,90.9213474 Z" id="Path-6" stroke="#B48DFF" stroke-width="0.4" fill="#F5F0FF"></path>
                    </g>
                </g>
            </g>
        </g>
    </g>
</svg>