<?xml version="1.0" encoding="UTF-8"?>
<svg width="895px" height="303px" viewBox="0 0 895 303" version="1.1" xmlns="http://www.w3.org/2000/svg" xmlns:xlink="http://www.w3.org/1999/xlink">
    <title>Group 2</title>
    <g id="Page-1" stroke="none" stroke-width="1" fill="none" fill-rule="evenodd">
        <g id="variations" transform="translate(-272.000000, -1397.000000)">
            <g id="Group-2" transform="translate(272.000000, 1397.000000)">
                <polygon id="K" fill="#B48DFF" fill-rule="nonzero" points="84.0391608 259 84.0391608 155.838983 84.7636364 155.838983 153.226573 259 259 259 157.935664 118.525424 254.290909 0 152.864336 0 84.4013986 95.4788136 83.6769231 95.4788136 83.6769231 0 0 0 0 259"></polygon>
                <path d="M342.8949,259 L342.8949,166.44774 L345.448223,166.44774 L395.055641,259 L495,259 L429.343122,154.009887 C443.933539,147.425141 455.119526,138.096751 462.901082,126.024718 C470.682638,113.952684 474.573416,99.9905838 474.573416,84.1384181 C474.573416,67.7984934 471.533745,54.2022128 465.454405,43.3495763 C459.375064,32.4969397 451.411128,23.8392185 441.562597,17.3764124 C431.714065,10.9136064 420.528078,6.40183616 408.004637,3.84110169 C395.481195,1.28036723 382.89696,0 370.251932,0 L259,0 L259,259 L342.8949,259 Z M359.309119,109.379944 L342.165379,109.379944 L342.165379,67.6765537 L362.956723,67.6765537 C365.631633,67.6765537 368.549717,67.8594633 371.710974,68.2252825 C374.872231,68.5911017 377.790314,69.4446798 380.465224,70.7860169 C383.140134,72.127354 385.328697,74.1393597 387.030912,76.8220339 C388.733127,79.5047081 389.584235,83.1629002 389.584235,87.7966102 C389.584235,92.4303202 388.550747,96.1494821 386.483771,98.954096 C384.416795,101.75871 381.863472,103.953625 378.823802,105.538842 C375.784132,107.124058 372.501288,108.160546 368.97527,108.648305 C365.449253,109.136064 362.227202,109.379944 359.309119,109.379944 L359.309119,109.379944 Z" id="R" fill="#B48DFF" fill-rule="nonzero"></path>
                <polygon id="I" fill="#B48DFF" fill-rule="nonzero" points="568 259 568 0 479 0 479 259"></polygon>
                <polygon id="M" fill="#B48DFF" fill-rule="nonzero" points="656.842466 259 652.836758 112.672316 654.657534 112.672316 701.997717 259 763.175799 259 811.244292 113.038136 813.429224 113.403955 810.880137 259 895 259 895 0 778.106164 0 737.684932 139.377119 735.864155 139.377119 689.252283 0 576 0 576 259"></polygon>
                <g id="Group-6" transform="translate(350.679934, 162.744588) rotate(-13.000000) translate(-350.679934, -162.744588) translate(241.679934, 44.744588)">
                    <path d="M0.491505797,191.736165 C1.47548093,189.740573 4.32717952,186.533444 9.04660157,182.114779 C15.4838303,176.087779 25.663333,162.020877 33.2077424,149.312769 C35.9666361,144.665577 39.7311866,138.13542 43.698756,129.262588 C45.3509239,125.56778 47.9311907,119.124613 51.4395565,109.933087 C48.071839,112.392889 45.4915721,114.006169 43.698756,114.772927 C41.9059398,115.539684 39.3736846,116.112945 36.1019902,116.49271 C41.9196497,98.943301 47.3248185,86.325914 52.3174965,78.6405486 C57.3101745,70.9551833 66.2544186,61.4841282 79.1502286,50.2273833 L67.6822485,50.2273833 C76.7277005,40.6800163 83.7134267,34.226062 88.6394273,30.8655204 C92.8857825,27.9686362 102.660575,25.7634553 106.57618,17.7986408 C109.944046,10.9479927 94.696827,1.74243035 98.0593296,0.505808203 C101.480218,-0.752286466 118.981797,16.8263134 121.58357,15.9423706 C134.889763,11.4216408 152.746035,10.6791178 175.152387,13.7148014 C173.39566,16.390133 171.795174,18.2963346 170.350927,19.4334064 C168.906681,20.5704782 166.232503,22.0297695 162.328392,23.8112804 C169.060183,29.1325378 173.815936,33.2392258 176.595652,36.1313444 C179.375368,39.023463 182.116362,42.7166662 184.818634,47.210954 L187.143332,53.6292522 L215.83997,70.8811556 L216.420492,71.4110884 C216.977382,72.0903232 217.29136,72.5597829 217.362425,72.8194675 C217.771532,74.3144152 217.935006,75.432347 217.852845,76.1732628 C217.749276,77.1072332 217.163128,78.2741363 216.094401,79.6739722 C210.80091,87.3921196 206.842785,92.6096901 204.220026,95.3266837 C201.597267,98.0436774 198.597557,100.033933 195.220896,101.297452 C191.933087,101.970121 187.971847,102.41344 183.337176,102.627407 C179.78971,102.791182 175.457485,102.857373 168.01105,103.946279 C167.127837,104.075433 165.549744,103.587019 163.768721,103.946279 C162.910739,104.119347 161.471361,104.683231 159.450586,105.637932 C150.367122,111.896264 143.719384,117.949906 139.507373,123.798856 C135.295361,129.647807 133.057444,138.152444 132.793621,149.312769 C133.814873,162.357744 136.05279,171.465462 139.507373,176.635922 C140.354151,177.903292 144.030392,185.936887 153.56054,196.210637 C156.774641,199.675522 168.724748,212.722521 189.410862,235.351635 L0.491505797,191.736165 Z" id="Path-4" fill="#FFFFFF"></path>
                    <path d="M156.463061,42.3909304 C163.043431,42.0517936 167.325424,42.5078739 169.309039,43.7591714 C171.292654,45.0104689 173.343994,48.5182306 175.463061,54.2824565 C169.887582,54.070688 166.167307,53.3765442 164.302234,52.200025 C162.437161,51.0235059 159.824103,47.7538077 156.463061,42.3909304 Z" id="Path-5" fill="#FFBC77"></path>
                    <path d="M208.261028,90.9213474 C201.901709,90.8229984 197.039458,90.7738238 193.674277,90.7738238 C190.309095,90.7738238 185.427035,89.6718933 179.028097,87.4680322 C167.032347,82.1373354 157.968311,78.9461915 151.835988,77.8946004 C145.703665,76.8430094 137.106691,77.0055847 126.045066,78.3823263 C122.527001,79.1894904 119.853968,79.9989734 118.025967,80.8107753 C116.197966,81.6225772 113.695994,83.1112764 110.520049,85.276873 L118.800668,86.7967708 C106.134763,97.0413477 98.2048246,105.199992 95.0108531,111.272703 C91.8168816,117.345414 90.167765,127.399466 90.0635033,141.434859 C91.9488598,153.155648 93.5979764,160.992849 95.0108531,164.946461 C98.2293587,173.952712 102.993707,179.745323 105.688872,182.4449 C108.480784,185.241382 116.257951,194.136063 127.55427,201.390493 C136.68571,207.25465 157.291222,218.390862 189.370809,234.799128 C178.510473,223.296987 169.617992,213.648688 162.693365,205.85423 C151.238934,192.96096 136.051084,171.042683 132.94104,154.210097 C132.292473,150.699845 132.400695,146.231525 133.265703,140.805138 C135.584302,130.903622 138.949223,123.77041 143.360467,119.405504 C146.887429,115.915591 152.64292,110.497156 158.930031,106.778269 C159.980902,106.156668 162.629174,105.21622 166.874845,103.956926 L186.567941,102.442079 L196.584941,100.819266 C200.336647,99.1912704 202.839969,97.7186991 204.094906,96.4015518 C205.349844,95.0844046 206.738551,93.2576698 208.261028,90.9213474 Z" id="Path-6" stroke="#B48DFF" stroke-width="0.4" fill="#F5F0FF"></path>
                </g>
            </g>
        </g>
    </g>
</svg>