<?xml version="1.0" encoding="UTF-8"?>
<svg width="44px" height="44px" viewBox="0 0 44 44" version="1.1" xmlns="http://www.w3.org/2000/svg" xmlns:xlink="http://www.w3.org/1999/xlink">
    <title>Group</title>
    <g id="Page-1" stroke="none" stroke-width="1" fill="none" fill-rule="evenodd">
        <g id="concept---links-on-home-page" transform="translate(-772.000000, -582.000000)">
            <g id="Group" transform="translate(772.000000, 582.000000)">
                <polygon id="Path" points="0 0 44 0 44 44 0 44"></polygon>
                <path d="M27.5,38.5 L11,38.5 C7.96243388,38.5 5.5,36.0375661 5.5,33 L5.5,31.1666667 L23.8333333,31.1666667 L23.8333333,34.8333333 C23.8333333,36.8583774 25.4749559,38.5 27.5,38.5 C29.5250441,38.5 31.1666667,36.8583774 31.1666667,34.8333333 L31.1666667,9.16666667 C31.1666667,7.14162258 32.8082893,5.5 34.8333333,5.5 C36.8583774,5.5 38.5,7.14162258 38.5,9.16666667 C38.5,11.1917107 36.8583774,12.8333333 34.8333333,12.8333333 L31.1666667,12.8333333 M34.8333333,5.5 L14.6666667,5.5 C11.6291005,5.5 9.16666667,7.96243388 9.16666667,11 L9.16666667,31.1666667" id="Shape" stroke="#000000" stroke-width="2.75" stroke-linecap="round" stroke-linejoin="round"></path>
                <line x1="16.5" y1="12.8333333" x2="23.8333333" y2="12.8333333" id="Path" stroke="#000000" stroke-width="2.75" stroke-linecap="round" stroke-linejoin="round"></line>
                <line x1="16.5" y1="20.1666667" x2="23.8333333" y2="20.1666667" id="Path" stroke="#000000" stroke-width="2.75" stroke-linecap="round" stroke-linejoin="round"></line>
            </g>
        </g>
    </g>
</svg>